# 3ds Max Wavefront OBJ Exporter v0.97b - (c)2007 guruware
# File Created: 07.12.2019 18:10:00

mtllib light.mtl

#
# object Hedra001
#

v  0.000000 0.500000 -0.000000
v  0.250000 -0.154509 0.404508
v  0.250000 -0.154509 -0.404509
v  -0.154508 -0.404508 0.250000
v  -0.404509 0.250000 -0.154508
v  0.000000 0.000000 0.500000
v  0.404509 0.250000 -0.154509
v  0.154509 -0.404508 0.250000
v  -0.250000 -0.154508 -0.404508
v  -0.250000 -0.154508 0.404509
v  0.154508 -0.404509 -0.250000
v  0.404509 0.250000 0.154508
v  -0.000000 -0.000000 -0.500000
v  -0.404508 0.250000 0.154509
v  -0.154509 -0.404509 -0.250000
v  0.500000 -0.000000 -0.000000
v  -0.154508 0.404509 0.250000
v  -0.154509 0.404509 -0.250000
v  0.404508 -0.250000 0.154508
v  -0.404508 -0.250000 0.154509
v  0.250000 0.154509 0.404508
v  0.250000 0.154508 -0.404509
v  -0.404509 -0.250000 -0.154508
v  -0.000000 -0.500000 0.000000
v  0.154508 0.404508 -0.250000
v  -0.250000 0.154509 0.404509
v  -0.250000 0.154508 -0.404508
v  0.404508 -0.250000 -0.154509
v  0.154509 0.404509 0.250000
v  -0.500000 -0.000000 0.000000
v  -0.000000 0.138197 -0.223607
v  0.000000 0.138197 0.223607
v  0.138197 -0.223607 -0.000000
v  -0.223607 0.000000 -0.138196
v  0.138197 0.223607 -0.000000
v  0.000000 -0.138197 0.223607
v  -0.000000 -0.138197 -0.223607
v  -0.138197 0.223607 -0.000000
v  0.223607 0.000000 0.138197
v  -0.138197 -0.223607 0.000000
v  0.223607 -0.000000 -0.138197
v  -0.223607 0.000000 0.138197
# 42 vertices

vn 0.934172 0.356822 -0.000000
vn -0.577350 -0.577350 -0.577350
vn 0.000000 0.934172 0.356822
vn 0.577350 -0.577350 -0.577350
vn -0.934172 0.356822 0.000000
vn 0.577350 -0.577350 0.577350
vn 0.000000 0.934172 -0.356822
vn -0.577350 -0.577350 0.577351
vn 0.356823 0.000000 0.934172
vn 0.356822 -0.000000 -0.934173
vn -0.000000 -0.934172 -0.356822
vn -0.577350 0.577350 0.577350
vn -0.577350 0.577350 -0.577350
vn 0.934172 -0.356822 -0.000000
vn 0.577351 0.577350 0.577350
vn -0.934172 -0.356822 0.000000
vn 0.000000 -0.934172 0.356822
vn 0.577350 0.577350 -0.577351
vn -0.356823 -0.000000 -0.934172
vn -0.356822 0.000000 0.934173
vn 0.000000 0.525731 -0.850651
vn -0.000000 0.525731 -0.850651
vn 0.000000 0.525731 0.850651
vn 0.525731 -0.850651 -0.000000
vn 0.525731 -0.850651 0.000000
vn -0.850651 -0.000000 -0.525731
vn -0.850651 0.000000 -0.525730
vn -0.850651 0.000000 -0.525731
vn 0.525731 0.850651 -0.000000
vn 0.525732 0.850650 -0.000000
vn 0.525731 0.850651 -0.000001
vn 0.000000 -0.525731 0.850651
vn -0.000000 -0.525731 0.850651
vn -0.000001 -0.525731 -0.850651
vn -0.000000 -0.525731 -0.850651
vn -0.000000 -0.525732 -0.850650
vn -0.525731 0.850651 -0.000000
vn -0.525731 0.850651 0.000000
vn 0.850651 0.000000 0.525731
vn 0.850651 -0.000000 0.525731
vn -0.525731 -0.850651 0.000001
vn -0.525732 -0.850651 -0.000000
vn -0.525731 -0.850651 0.000000
vn -0.525731 -0.850651 -0.000000
vn 0.850651 -0.000000 -0.525732
vn 0.850651 -0.000000 -0.525731
vn -0.850651 0.000000 0.525732
vn -0.850651 0.000000 0.525731
# 48 vertex normals

vt 0.000000 0.500000 0.000000
vt -0.404508 -0.154509 0.250000
vt 0.404509 -0.154509 0.250000
vt -0.250000 -0.404508 -0.154508
vt 0.154508 0.250000 -0.404509
vt -0.404509 0.154508 0.250000
vt 0.000000 -0.500000 0.000000
vt 0.404509 0.154509 0.250000
vt 0.154509 -0.250000 -0.404508
vt -0.250000 0.404508 -0.154508
vt 0.404508 -0.154508 -0.250000
vt -0.404509 -0.154508 -0.250000
vt -0.154508 -0.250000 -0.404509
vt 0.250000 0.404509 -0.154508
vt 0.404509 -0.154508 0.250000
vt -0.000000 0.500000 -0.000000
vt 0.250000 -0.404508 -0.154509
vt -0.404509 -0.154509 0.250000
vt -0.154509 0.250000 -0.404508
vt -0.000000 0.500000 0.000000
vt 0.404509 -0.154508 -0.250000
vt -0.404508 -0.154508 -0.250000
vt -0.404508 -0.154509 -0.250000
vt 0.250000 -0.404508 0.154509
vt -0.154509 0.250000 0.404509
vt 0.404509 0.154508 0.250000
vt 0.154508 -0.250000 -0.404509
vt -0.250000 0.404509 -0.154508
vt -0.404508 0.154509 0.250000
vt -0.000000 -0.500000 -0.000000
vt -0.154508 -0.250000 0.404508
vt 0.250000 0.404508 0.154508
vt -0.404509 0.154509 -0.250000
vt 0.404508 0.154508 -0.250000
vt 0.404508 0.154509 -0.250000
vt -0.404509 0.154508 -0.250000
vt 0.154508 -0.250000 0.404508
vt 0.404509 0.154509 -0.250000
vt -0.250000 0.404508 0.154509
vt 0.404508 0.154508 0.250000
vt -0.404508 0.154509 -0.250000
vt 0.138197 -0.000000 0.223607
vt 0.250000 -0.404509 0.154508
vt 0.250000 0.404509 0.154509
vt 0.500000 0.000000 0.000000
vt 0.138197 0.000000 -0.223607
vt -0.154509 0.250000 -0.404509
vt 0.500000 0.000000 -0.000000
vt -0.154508 -0.250000 -0.404508
vt 0.250000 0.404509 -0.154509
vt 0.138196 0.000000 -0.223607
vt 0.500000 -0.000000 -0.000000
vt -0.154509 -0.250000 -0.404508
vt 0.250000 -0.404509 -0.154509
vt 0.138197 0.000000 0.223607
vt 0.250000 0.404509 0.154508
vt -0.154508 -0.250000 0.404509
vt -0.138197 0.000000 -0.223607
vt -0.250000 -0.404508 -0.154509
vt 0.154509 -0.250000 -0.404509
vt -0.500000 -0.000000 -0.000000
vt 0.154509 0.250000 -0.404508
vt -0.138197 -0.000000 0.223607
vt -0.250000 -0.404509 0.154508
vt 0.154508 0.250000 0.404509
vt -0.138197 0.000000 0.223607
vt -0.250000 -0.404509 0.154509
vt 0.154508 0.250000 0.404508
vt 0.154509 -0.250000 0.404509
vt -0.250000 0.404508 0.154508
vt -0.250000 0.404509 0.154509
vt -0.250000 -0.404508 0.154509
vt 0.154509 0.250000 0.404509
vt -0.500000 0.000000 0.000000
vt 0.154509 -0.250000 0.404508
vt -0.138197 -0.000000 -0.223607
vt -0.250000 -0.404509 -0.154508
vt -0.154508 0.250000 0.404509
# 78 texture coords

o Hedra001
g Hedra001
usemtl 02___Default
f 1/1/1 2/2/1 3/3/1 
f 3/3/2 4/4/2 5/5/2 
f 5/6/3 6/7/3 7/8/3 
f 7/8/4 8/9/4 9/10/4 
f 9/11/5 10/12/5 1/1/5 
f 10/13/6 11/6/6 12/14/6 
f 12/15/7 13/16/7 14/2/7 
f 14/17/8 15/18/8 2/19/8 
f 16/20/9 17/21/9 4/22/9 
f 15/18/10 18/3/10 16/20/10 
f 13/16/11 19/11/11 20/23/11 
f 20/23/12 21/24/12 18/25/12 
f 22/26/13 23/27/13 17/28/13 
f 21/29/14 24/30/14 22/26/14 
f 19/31/15 25/32/15 26/33/15 
f 26/33/16 27/34/16 24/30/16 
f 28/35/17 6/7/17 23/36/17 
f 27/37/18 29/38/18 28/39/18 
f 25/40/19 11/6/19 30/30/19 
f 30/30/20 8/41/20 29/38/20 
f 31/42/21 3/25/21 5/43/21 
f 31/42/22 5/43/22 7/44/22 
f 31/42/21 7/44/21 9/31/21 
f 31/42/21 9/31/21 1/45/21 
f 31/42/22 1/45/22 3/25/22 
f 32/46/23 10/13/23 12/14/23 
f 32/46/23 12/14/23 14/17/23 
f 32/46/23 14/17/23 2/19/23 
f 32/46/23 2/19/23 1/45/23 
f 32/46/23 1/45/23 10/13/23 
f 33/46/24 2/17/24 15/47/24 
f 33/46/24 15/47/24 16/48/24 
f 33/46/24 16/48/24 4/49/24 
f 33/46/25 4/49/25 3/50/25 
f 33/46/24 3/50/24 2/17/24 
f 34/51/26 14/19/26 13/52/26 
f 34/51/26 13/52/26 20/53/26 
f 34/51/27 20/53/27 18/50/27 
f 34/51/28 18/50/28 15/54/28 
f 34/51/28 15/54/28 14/19/28 
f 35/55/29 18/25/29 21/24/29 
f 35/55/30 21/24/30 22/56/30 
f 35/55/31 22/56/31 17/57/31 
f 35/55/31 17/57/31 16/48/31 
f 35/55/29 16/48/29 18/25/29 
f 36/58/32 20/59/32 19/10/32 
f 36/58/32 19/10/32 26/60/32 
f 36/58/33 26/60/33 24/61/33 
f 36/58/32 24/61/32 21/62/32 
f 36/58/32 21/62/32 20/59/32 
f 37/63/34 24/61/34 27/37/34 
f 37/63/35 27/37/35 28/39/35 
f 37/63/35 28/39/35 23/64/35 
f 37/63/36 23/64/36 22/65/36 
f 37/63/34 22/65/34 24/61/34 
f 38/66/37 26/67/37 25/68/37 
f 38/66/37 25/68/37 30/61/37 
f 38/66/38 30/61/38 29/69/38 
f 38/66/37 29/69/37 27/70/37 
f 38/66/37 27/70/37 26/67/37 
f 39/66/39 29/71/39 8/72/39 
f 39/66/39 8/72/39 7/73/39 
f 39/66/40 7/73/40 6/74/40 
f 39/66/39 6/74/39 28/75/39 
f 39/66/39 28/75/39 29/71/39 
f 40/76/41 30/61/41 11/5/41 
f 40/76/42 11/5/42 10/77/42 
f 40/76/43 10/77/43 9/10/43 
f 40/76/44 9/10/44 8/9/44 
f 40/76/41 8/9/41 30/61/41 
f 41/42/45 11/43/45 25/32/45 
f 41/42/46 25/32/46 19/31/46 
f 41/42/46 19/31/46 13/52/46 
f 41/42/46 13/52/46 12/78/46 
f 41/42/46 12/78/46 11/43/46 
f 42/58/47 5/5/47 4/4/47 
f 42/58/48 4/4/48 17/28/48 
f 42/58/48 17/28/48 23/27/48 
f 42/58/48 23/27/48 6/74/48 
f 42/58/48 6/74/48 5/5/48 
# 80 faces

